<svg width="920" height="590" viewBox="0 0 920 590" fill="none" xmlns="http://www.w3.org/2000/svg" role="img" aria-labelledby="title desc">
  <title id="title">Antriksh Srivastava terminal profile</title>
  <desc id="desc">A terminal-style profile card for Antriksh Srivastava with research focus, tools, contact links, and GitHub information.</desc>
  <rect width="920" height="590" rx="12" fill="#0d1117"/>
  <rect x="18" y="18" width="884" height="554" rx="10" fill="#111821" stroke="#30363d"/>
  <style>
    text {
      font-family: Consolas, "Liberation Mono", "Courier New", monospace;
      font-size: 23px;
      font-weight: 700;
      letter-spacing: .2px;
    }
    .muted { fill: #7d8590; }
    .line { stroke: #7d8590; stroke-width: 2; opacity: .85; }
    .label { fill: #d1864a; }
    .value { fill: #9ecbff; }
    .plain { fill: #c9d1d9; }
    .green { fill: #56d364; }
    .red { fill: #ff7b72; }
  </style>

  <text x="42" y="58" class="plain">antriksh@isu</text>
  <line x1="214" y1="51" x2="878" y2="51" class="line"/>

  <text x="42" y="94" class="label">Role:</text>
  <text x="178" y="94" class="muted">.......................</text>
  <text x="560" y="94" class="value">Postdoctoral Researcher</text>

  <text x="42" y="126" class="label">Host:</text>
  <text x="178" y="126" class="muted">.......................</text>
  <text x="536" y="126" class="value">Iowa State University</text>

  <text x="42" y="158" class="label">Location:</text>
  <text x="178" y="158" class="muted">.......................</text>
  <text x="632" y="158" class="value">Ames, Iowa</text>

  <text x="42" y="190" class="label">Focus:</text>
  <text x="178" y="190" class="muted">.......................</text>
  <text x="440" y="190" class="value">Crop models, plant fluxes, climate stress</text>

  <text x="42" y="238" class="label">Languages.Programming:</text>
  <text x="360" y="238" class="muted">..........</text>
  <text x="554" y="238" class="value">Python, MATLAB, R</text>

  <text x="42" y="270" class="label">Methods.Modeling:</text>
  <text x="360" y="270" class="muted">..........</text>
  <text x="494" y="270" class="value">Process models, PINNs, calibration</text>

  <text x="42" y="302" class="label">Tools.Software:</text>
  <text x="360" y="302" class="muted">..........</text>
  <text x="520" y="302" class="value">PyTorch, Streamlit, QGIS, HYDRUS</text>

  <text x="42" y="350" class="plain">- Projects</text>
  <line x1="178" y1="343" x2="878" y2="343" class="line"/>
  <text x="42" y="384" class="label">vLeaf:</text>
  <text x="178" y="384" class="muted">.......................</text>
  <text x="452" y="384" class="value">Leaf-scale mass and energy exchange</text>
  <text x="42" y="416" class="label">vCanopy:</text>
  <text x="178" y="416" class="muted">.......................</text>
  <text x="428" y="416" class="value">Canopy carbon, water, energy fluxes</text>

  <text x="42" y="464" class="plain">- Contact</text>
  <line x1="166" y1="457" x2="878" y2="457" class="line"/>
  <text x="42" y="494" class="label">Website:</text>
  <text x="178" y="494" class="value">sites.google.com/view/cropsystemmodelling/home</text>
  <text x="42" y="526" class="label">Email:</text>
  <text x="178" y="526" class="value">srivastava.antriksh96@gmail.com</text>
  <text x="42" y="558" class="label">GitHub:</text>
  <text x="178" y="558" class="value">github.com/GitHub-srivastava</text>
</svg>
